<svg width="30" height="29" viewBox="0 0 30 29" fill="none" xmlns="http://www.w3.org/2000/svg">
<path d="M14.9768 0.000488144C14.8456 0.00501202 14.7192 0.0507088 14.6155 0.1311L0.240829 11.3479C0.110037 11.4498 0.0251126 11.5996 0.00473875 11.7642C-0.0156351 11.9288 0.0302101 12.0947 0.132189 12.2255C0.234168 12.3563 0.383927 12.4412 0.548521 12.4616C0.713115 12.482 0.879061 12.4361 1.00985 12.3342L1.87531 11.6591V28.0906C1.87533 28.2564 1.94118 28.4153 2.05838 28.5325C2.17559 28.6497 2.33454 28.7156 2.50029 28.7156H11.1451C11.2126 28.7267 11.2815 28.7267 11.349 28.7156H18.6449C18.7124 28.7267 18.7813 28.7267 18.8488 28.7156H27.4997C27.6654 28.7156 27.8244 28.6497 27.9416 28.5325C28.0588 28.4153 28.1246 28.2564 28.1247 28.0906V11.6591L28.9901 12.3342C29.0549 12.3847 29.1289 12.4219 29.2081 12.4438C29.2873 12.4657 29.37 12.4717 29.4515 12.4616C29.533 12.4516 29.6117 12.4255 29.6831 12.385C29.7546 12.3445 29.8173 12.2903 29.8678 12.2256C29.9183 12.1608 29.9556 12.0867 29.9774 12.0076C29.9993 11.9284 30.0054 11.8457 29.9953 11.7642C29.9852 11.6827 29.9591 11.604 29.9186 11.5325C29.8781 11.4611 29.8239 11.3984 29.7591 11.3479L24.9997 7.63457V3.09123H21.2498V4.7074L15.3845 0.1311C15.2682 0.0409275 15.1238 -0.00532459 14.9768 0.000488144ZM15 1.41769L26.8747 10.6838V27.4656H19.3749V15.5909H10.6251V27.4656H3.12528V10.6838L15 1.41769ZM22.4998 4.3412H23.7498V6.65926L22.4998 5.68272V4.3412ZM11.8751 16.8409H18.1249V27.4656H11.8751V16.8409Z" fill="#ABABAB"/>
</svg>
