<svg width="29" height="20" viewBox="0 0 29 20" fill="none" xmlns="http://www.w3.org/2000/svg">
<path d="M25.3524 0H3.52763C1.58258 0 0 1.58258 0 3.52763V16.0786C0 18.0236 1.58258 19.6062 3.52763 19.6062H25.3524C27.2974 19.6062 28.88 18.0236 28.88 16.0786V3.52801C28.8804 1.58258 27.2978 0 25.3524 0ZM23.6286 2.30138L14.44 8.22129L5.25136 2.30138H23.6286ZM25.3524 17.3052H3.52763C2.85141 17.3052 2.30138 16.7548 2.30138 16.079V3.59322L13.73 10.9423C13.7454 10.9519 13.7619 10.9584 13.7776 10.9672C13.7941 10.9764 13.811 10.9852 13.8278 10.9937C13.9164 11.0393 14.0077 11.0762 14.1009 11.1003C14.1105 11.103 14.1201 11.1042 14.1297 11.1065C14.2321 11.1306 14.3357 11.1456 14.4392 11.1456H14.44C14.4408 11.1456 14.4415 11.1456 14.4415 11.1456C14.5451 11.1456 14.6487 11.131 14.7511 11.1065C14.7607 11.1042 14.7702 11.103 14.7798 11.1003C14.873 11.0762 14.9639 11.0393 15.0529 10.9937C15.0698 10.9852 15.0867 10.9764 15.1032 10.9672C15.1189 10.9584 15.1354 10.9519 15.1507 10.9423L26.5794 3.59322V16.0786C26.579 16.7548 26.0286 17.3052 25.3524 17.3052Z" fill="#ABABAB"/>
</svg>
