<svg width="30" height="30" viewBox="0 0 30 30" fill="none" xmlns="http://www.w3.org/2000/svg">
<path d="M3.57143 0C1.60749 0 0 1.60749 0 3.57143V26.4286C0 28.3925 1.60749 30 3.57143 30H26.4286C28.3925 30 30 28.3925 30 26.4286V3.57143C30 1.60749 28.3925 0 26.4286 0H3.57143ZM3.57143 1.42857H26.4286C27.6203 1.42857 28.5714 2.37965 28.5714 3.57143V26.4286C28.5714 27.6203 27.6203 28.5714 26.4286 28.5714H3.57143C2.37965 28.5714 1.42857 27.6203 1.42857 26.4286V3.57143C1.42857 2.37965 2.37965 1.42857 3.57143 1.42857ZM7.14286 5.00837C6.36056 5.00837 5.65659 5.2422 5.13532 5.6808C4.61406 6.11941 4.29409 6.77465 4.29409 7.47628C4.29409 8.80998 5.45092 9.84972 6.92243 9.95257L6.92522 9.95396C6.99534 9.97786 7.06879 9.99057 7.14286 9.99163C8.76644 9.99163 9.99163 8.85435 9.99163 7.47628C9.9915 7.46372 9.99103 7.45116 9.99023 7.43862C9.91755 6.08131 8.70746 5.00837 7.14286 5.00837ZM7.14286 6.4202C8.13731 6.4202 8.52998 6.86431 8.57282 7.49442C8.56415 8.10602 8.18578 8.5798 7.14286 8.5798C6.15328 8.5798 5.70592 8.07302 5.70592 7.47628C5.70592 7.17792 5.81479 6.95307 6.04353 6.7606C6.27226 6.56814 6.63944 6.4202 7.14286 6.4202ZM5 10.7143C4.81057 10.7143 4.6289 10.7896 4.49495 10.9235C4.36099 11.0575 4.28573 11.2391 4.28571 11.4286V25C4.28573 25.1894 4.36099 25.3711 4.49495 25.5051C4.6289 25.639 4.81057 25.7143 5 25.7143H9.28571C9.47515 25.7143 9.65682 25.639 9.79077 25.5051C9.92472 25.3711 9.99998 25.1894 10 25V20.8105V11.4286C9.99998 11.2391 9.92472 11.0575 9.79077 10.9235C9.65682 10.7896 9.47515 10.7143 9.28571 10.7143H5ZM11.4286 10.7143C11.2391 10.7143 11.0575 10.7896 10.9235 10.9235C10.7896 11.0575 10.7143 11.2391 10.7143 11.4286V25C10.7143 25.1894 10.7896 25.3711 10.9235 25.5051C11.0575 25.639 11.2391 25.7143 11.4286 25.7143H15.7143C15.9037 25.7143 16.0854 25.639 16.2193 25.5051C16.3533 25.3711 16.4286 25.1894 16.4286 25V17.8571C16.4286 17.2645 16.5903 16.675 16.875 16.2891C17.1597 15.9031 17.5189 15.6715 18.2017 15.6836C18.9058 15.6957 19.2786 15.9369 19.5605 16.3156C19.8425 16.6942 20 17.2619 20 17.8571V25C20 25.1894 20.0753 25.3711 20.2092 25.5051C20.3432 25.639 20.5249 25.7143 20.7143 25.7143H25C25.1894 25.7143 25.3711 25.639 25.5051 25.5051C25.639 25.3711 25.7143 25.1894 25.7143 25V17.3298C25.7143 15.2144 25.0877 13.5388 24.0137 12.4051C22.9396 11.2715 21.4458 10.7143 19.8661 10.7143C18.3646 10.7143 17.222 11.2178 16.4286 11.7313V11.4286C16.4286 11.2391 16.3533 11.0575 16.2193 10.9235C16.0854 10.7896 15.9037 10.7143 15.7143 10.7143H11.4286ZM5.71429 12.1429H8.57143V20.8105V24.2857H5.71429V12.1429ZM12.1429 12.1429H15V13.2575C15 13.4073 15.0472 13.5533 15.1347 13.6748C15.2222 13.7964 15.3458 13.8873 15.4878 13.9348C15.6298 13.9823 15.7832 13.984 15.9263 13.9395C16.0693 13.8951 16.1947 13.8068 16.2849 13.6872C16.2849 13.6872 17.4066 12.1429 19.8661 12.1429C21.1184 12.1429 22.1924 12.559 22.9771 13.3873C23.7618 14.2156 24.2857 15.4916 24.2857 17.3298V24.2857H21.4286V17.8571C21.4286 17.0238 21.2289 16.1622 20.7073 15.4618C20.1857 14.7613 19.3085 14.2736 18.2268 14.255C17.1397 14.2357 16.2482 14.7336 15.7254 15.4422C15.2027 16.1509 15 17.0212 15 17.8571V24.2857H12.1429V12.1429Z" fill="#ABABAB"/>
</svg>
