<svg width="41" height="41" viewBox="0 0 41 41" fill="none" xmlns="http://www.w3.org/2000/svg">
<path d="M20.5001 0C16.4455 0 12.4821 1.20231 9.11084 3.45488C5.73963 5.70746 3.11208 8.90913 1.56048 12.655C0.00888244 16.4009 -0.397087 20.5228 0.393912 24.4994C1.18491 28.476 3.13735 32.1288 6.00434 34.9958C8.87132 37.8628 12.5241 39.8152 16.5007 40.6062C20.4773 41.3972 24.5992 40.9912 28.3451 39.4396C32.091 37.888 35.2927 35.2605 37.5452 31.8893C39.7978 28.5181 41.0001 24.5546 41.0001 20.5001C41.0001 15.0631 38.8403 9.84883 34.9958 6.00433C31.1513 2.15982 25.937 0 20.5001 0ZM20.5001 39.5863C16.7252 39.5863 13.035 38.4669 9.89631 36.3697C6.75759 34.2725 4.31125 31.2916 2.86666 27.8041C1.42207 24.3165 1.0441 20.4789 1.78054 16.7765C2.51699 13.0741 4.33478 9.6733 7.00404 7.00403C9.6733 4.33477 13.0741 2.51698 16.7765 1.78053C20.4789 1.04409 24.3165 1.42206 27.8041 2.86665C31.2916 4.31125 34.2725 6.75758 36.3697 9.8963C38.4669 13.035 39.5863 16.7252 39.5863 20.5001C39.5863 25.562 37.5755 30.4167 33.9961 33.9961C30.4167 37.5755 25.5621 39.5863 20.5001 39.5863ZM31.1035 21.207H9.89659C9.70911 21.207 9.5293 21.2814 9.39674 21.414C9.26417 21.5466 9.18969 21.7264 9.18969 21.9139C9.18969 28.9334 14.2652 34.638 20.5001 34.638C26.7349 34.638 31.8104 28.9334 31.8104 21.9139C31.8104 21.7264 31.736 21.5466 31.6034 21.414C31.4708 21.2814 31.291 21.207 31.1035 21.207ZM10.6035 22.6208H30.3966C30.3458 23.5781 30.1869 24.5267 29.923 25.4483H11.1054C10.8319 24.5278 10.6635 23.5792 10.6035 22.6208ZM16.7182 32.3759C17.1364 31.7665 17.6967 31.2681 18.3507 30.9237C19.0047 30.5793 19.7327 30.3993 20.4718 30.3993C21.2109 30.3993 21.9389 30.5793 22.5929 30.9237C23.2469 31.2681 23.8072 31.7665 24.2254 32.3759C23.0529 32.9343 21.7705 33.2241 20.4718 33.2241C19.1731 33.2241 17.8907 32.9343 16.7182 32.3759ZM25.4484 31.6691C24.8925 30.8641 24.1548 30.2015 23.2951 29.7348C22.4354 29.2681 21.4779 29.0105 20.5001 28.9828C19.5216 29.0113 18.5637 29.27 17.704 29.738C16.8442 30.2059 16.1069 30.8699 15.5518 31.6761C13.8035 30.4836 12.4364 28.8122 11.6144 26.8621H29.3858C28.5637 28.8122 27.1966 30.4836 25.4484 31.6761V31.6691ZM23.4054 16.6475L26.9399 9.57847C26.9519 9.5541 26.9687 9.53244 26.9894 9.51485C27.0353 9.43144 27.1039 9.36279 27.1873 9.31692C27.2049 9.29624 27.2266 9.2794 27.2509 9.26744C27.2509 9.26744 27.2863 9.26744 27.3004 9.26744C27.3462 9.24912 27.3935 9.23492 27.4418 9.22503L27.569 9.18968H27.6963C27.7446 9.19958 27.7919 9.21377 27.8377 9.23209C27.8377 9.23209 27.8377 9.23209 27.8872 9.23209C27.9366 9.23209 27.9296 9.26744 27.9508 9.28158C28.0342 9.32745 28.1028 9.3961 28.1487 9.47951C28.1694 9.4971 28.1862 9.51875 28.1982 9.54313L31.7327 16.6121C31.8165 16.7791 31.8309 16.9724 31.7726 17.1499C31.7143 17.3274 31.5881 17.4746 31.4216 17.5594C31.3273 17.6241 31.2176 17.6631 31.1035 17.6725C30.973 17.6721 30.8451 17.6355 30.7341 17.5669C30.623 17.4983 30.5331 17.4002 30.4744 17.2837L27.569 11.48L24.6637 17.2837C24.605 17.4002 24.5151 17.4983 24.404 17.5669C24.293 17.6355 24.1651 17.6721 24.0346 17.6725C23.9237 17.6738 23.8142 17.647 23.7165 17.5947C23.55 17.51 23.4238 17.3627 23.3655 17.1853C23.3072 17.0078 23.3216 16.8144 23.4054 16.6475ZM9.26745 16.6475L12.8019 9.57847C12.8139 9.5541 12.8307 9.53244 12.8514 9.51485C12.8973 9.43144 12.9659 9.36279 13.0494 9.31692C13.0494 9.31692 13.0918 9.27451 13.113 9.26744C13.1342 9.26037 13.1483 9.26744 13.1625 9.26744C13.2082 9.24912 13.2555 9.23492 13.3038 9.22503L13.4311 9.18968H13.5583C13.6066 9.19958 13.6539 9.21377 13.6997 9.23209C13.6997 9.23209 13.735 9.23209 13.7492 9.23209C13.7633 9.23209 13.7916 9.26744 13.8128 9.28158C13.8962 9.32745 13.9649 9.3961 14.0107 9.47951C14.0314 9.4971 14.0483 9.51875 14.0602 9.54313L17.5947 16.6121C17.6786 16.7791 17.6929 16.9724 17.6346 17.1499C17.5763 17.3274 17.4502 17.4746 17.2837 17.5594C17.1893 17.6241 17.0796 17.6631 16.9656 17.6725C16.835 17.6721 16.7072 17.6355 16.5961 17.5669C16.4851 17.4983 16.3952 17.4002 16.3364 17.2837L13.4311 11.48L10.5257 17.2837C10.467 17.4002 10.3771 17.4983 10.2661 17.5669C10.155 17.6355 10.0271 17.6721 9.89659 17.6725C9.78569 17.6738 9.67626 17.647 9.57848 17.5947C9.41199 17.51 9.28582 17.3627 9.22753 17.1853C9.16925 17.0078 9.1836 16.8144 9.26745 16.6475Z" fill="black"/>
</svg>
