<svg width="28" height="28" viewBox="0 0 28 28" fill="none" xmlns="http://www.w3.org/2000/svg">
<path d="M27.372 22.0963L23.048 17.7717C22.1868 16.914 20.7604 16.9403 19.8691 17.8316L17.6907 20.0099C17.5532 19.9337 17.4107 19.8545 17.2609 19.7705C15.8853 19.0083 14.0024 17.9636 12.0209 15.9807C10.0338 13.9938 8.98772 12.1078 8.22343 10.7312C8.1423 10.5853 8.06518 10.4448 7.98903 10.3113L9.45114 8.85116L10.1698 8.13151C11.0627 7.23868 11.0874 5.81264 10.2277 4.95256L5.90359 0.62745C5.04448 -0.231658 3.61747 -0.205536 2.72464 0.687294L1.50592 1.91293L1.5395 1.9461C1.13096 2.46743 0.789166 3.06891 0.535414 3.71739C0.301012 4.33463 0.155063 4.92381 0.0883084 5.51383C-0.482495 10.2475 1.68048 14.5734 7.55076 20.4443C15.6652 28.5581 22.2046 27.9453 22.4866 27.9152C23.1015 27.8419 23.69 27.695 24.2886 27.4625C24.9315 27.2113 25.5326 26.8704 26.0534 26.4629L26.08 26.4861L27.3146 25.2772C28.2055 24.3845 28.2313 22.9584 27.372 22.0963ZM26.3541 24.3158L25.81 24.8589L25.5933 25.0672C25.252 25.3971 24.6613 25.8605 23.7988 26.1979C23.3091 26.3864 22.8263 26.5075 22.3351 26.566C22.2733 26.5719 16.1226 27.0967 8.51021 19.4848C2.03761 13.0125 1.00035 9.28293 1.43515 5.6707C1.48961 5.19194 1.60971 4.71014 1.80169 4.20665C2.14196 3.33911 2.60496 2.74896 2.93237 2.40717L3.68464 1.64743C4.04717 1.28394 4.61258 1.25616 4.94401 1.58759L9.26801 5.91159C9.59888 6.24343 9.57276 6.80885 9.20969 7.17344L6.28947 10.0908L6.55898 10.5444C6.7088 10.7971 6.86718 11.0805 7.03635 11.3883C7.83962 12.837 8.93866 14.82 11.0611 16.9405C13.1781 19.0586 15.1582 20.1567 16.6025 20.9579C16.9146 21.1305 17.1995 21.2893 17.4552 21.4416L17.9098 21.7111L20.8281 18.7918C21.1921 18.4293 21.7595 18.4025 22.0909 18.733L26.413 23.056C26.7434 23.3873 26.7172 23.9527 26.3541 24.3158Z" fill="#ABABAB"/>
</svg>
