<svg width="39" height="39" viewBox="0 0 39 39" fill="none" xmlns="http://www.w3.org/2000/svg">
<path d="M7.16714 1H31.8328V6.95179C31.833 8.57149 31.5142 10.1754 30.8945 11.6718C30.2748 13.1683 29.3664 14.528 28.2211 15.6734C27.0759 16.8187 25.7163 17.7273 24.2199 18.3472C22.7235 18.967 21.1197 19.2861 19.5 19.2861C16.2291 19.2861 13.0922 17.9867 10.7794 15.6739C8.4665 13.361 7.16714 10.2241 7.16714 6.95324V1Z" stroke="white" stroke-width="1.87891" stroke-linecap="round" stroke-linejoin="round"/>
<path d="M28.75 37.893C28.75 35.4398 27.7754 33.087 26.0407 31.3523C24.306 29.6176 21.9532 28.643 19.5 28.643C17.0467 28.643 14.694 29.6176 12.9593 31.3523C11.2245 33.087 10.25 35.4398 10.25 37.893H28.75Z" stroke="white" stroke-width="1.87891" stroke-linecap="round" stroke-linejoin="round"/>
<path d="M19.5 19.2861V28.643" stroke="white" stroke-width="1.87891" stroke-linecap="round" stroke-linejoin="round"/>
<path d="M27.5345 16.3102H31.7043C32.531 16.3102 33.3497 16.1474 34.1136 15.831C34.8774 15.5146 35.5714 15.0508 36.1561 14.4662C36.7407 13.8816 37.2044 13.1875 37.5208 12.4237C37.8372 11.6599 38 10.8412 38 10.0144V7.0602H31.8329" stroke="white" stroke-width="1.87891" stroke-linecap="round" stroke-linejoin="round"/>
<path d="M11.4655 16.3102H7.29578C5.62603 16.3102 4.02468 15.6469 2.84399 14.4662C1.6633 13.2855 1 11.6842 1 10.0144V7.0602H7.16715" stroke="white" stroke-width="1.87891" stroke-linecap="round" stroke-linejoin="round"/>
</svg>
